<svg width="9" height="16" viewBox="0 0 9 16" fill="none" xmlns="http://www.w3.org/2000/svg">
<path d="M8.66343 13.5868C8.83955 13.763 8.9385 14.0018 8.9385 14.2509C8.9385 14.5 8.83955 14.7388 8.66343 14.915C8.48731 15.0911 8.24844 15.19 7.99937 15.19C7.7503 15.19 7.51143 15.0911 7.33531 14.915L1.08531 8.66496C0.997909 8.57786 0.928562 8.47437 0.881245 8.36041C0.833927 8.24646 0.80957 8.12428 0.80957 8.00089C0.80957 7.87751 0.833927 7.75533 0.881245 7.64138C0.928562 7.52742 0.997909 7.42393 1.08531 7.33683L7.33531 1.08683C7.51143 0.910711 7.7503 0.811768 7.99937 0.811768C8.24844 0.811768 8.48731 0.910711 8.66343 1.08683C8.83955 1.26295 8.9385 1.50182 8.9385 1.75089C8.9385 1.99997 8.83955 2.23884 8.66343 2.41496L3.07828 8.00011L8.66343 13.5868Z" fill="#4F46E5"/>
</svg>
