<svg width="16" height="18" viewBox="0 0 16 18" fill="none" xmlns="http://www.w3.org/2000/svg">
<path d="M14.25 5.9375H12.0625V4.375C12.0625 3.29756 11.6345 2.26425 10.8726 1.50238C10.1108 0.740512 9.07744 0.3125 8 0.3125C6.92256 0.3125 5.88925 0.740512 5.12738 1.50238C4.36551 2.26425 3.9375 3.29756 3.9375 4.375V5.9375H1.75C1.3356 5.9375 0.938171 6.10212 0.645146 6.39515C0.35212 6.68817 0.1875 7.0856 0.1875 7.5V16.25C0.1875 16.6644 0.35212 17.0618 0.645146 17.3549C0.938171 17.6479 1.3356 17.8125 1.75 17.8125H14.25C14.6644 17.8125 15.0618 17.6479 15.3549 17.3549C15.6479 17.0618 15.8125 16.6644 15.8125 16.25V7.5C15.8125 7.0856 15.6479 6.68817 15.3549 6.39515C15.0618 6.10212 14.6644 5.9375 14.25 5.9375ZM5.8125 4.375C5.8125 3.79484 6.04297 3.23844 6.4532 2.8282C6.86344 2.41797 7.41984 2.1875 8 2.1875C8.58016 2.1875 9.13656 2.41797 9.5468 2.8282C9.95703 3.23844 10.1875 3.79484 10.1875 4.375V5.9375H5.8125V4.375ZM13.9375 15.9375H2.0625V7.8125H13.9375V15.9375Z" fill="#475569"/>
</svg>
